<?xml version="1.0" standalone="no"?>
<!DOCTYPE svg PUBLIC "-//W3C//DTD SVG 20010904//EN"
 "http://www.w3.org/TR/2001/REC-SVG-20010904/DTD/svg10.dtd">
<svg version="1.0" xmlns="http://www.w3.org/2000/svg"
 width="750.000000pt" height="938.000000pt" viewBox="0 0 750.000000 938.000000"
 preserveAspectRatio="xMidYMid meet">

<g transform="translate(0.000000,938.000000) scale(0.100000,-0.100000)"
fill="#000000" stroke="none">
<path d="M3937 7639 c-187 -98 -207 -582 -55 -1314 21 -104 42 -205 45 -224 6
-33 2 -30 -98 66 -536 517 -1014 834 -1254 833 -54 0 -120 -25 -147 -56 -138
-156 18 -487 462 -979 63 -70 218 -228 344 -351 126 -123 228 -225 225 -227
-2 -2 -35 -21 -74 -42 -247 -134 -482 -290 -696 -461 -117 -94 -351 -305 -404
-365 -16 -19 -62 -70 -101 -114 -438 -494 -695 -1033 -790 -1658 -21 -138 -31
-586 -14 -647 16 -61 89 -131 153 -149 109 -31 225 27 267 134 8 19 12 85 11
180 -6 638 194 1203 610 1725 116 147 388 416 549 543 74 59 200 152 280 206
137 93 365 231 382 231 5 0 8 -163 8 -362 0 -832 66 -1244 207 -1298 33 -13
89 7 119 43 117 138 187 519 214 1172 5 132 10 245 11 250 0 6 16 -57 35 -140
232 -1013 474 -1592 680 -1631 112 -21 188 85 214 296 35 287 -34 848 -184
1510 -13 58 -23 106 -21 108 2 2 34 -19 72 -45 266 -191 579 -383 797 -489
282 -139 486 -185 585 -132 64 33 84 66 89 143 4 59 1 73 -28 132 -37 74 -140
185 -249 268 -169 128 -523 323 -801 441 -63 26 -117 49 -119 51 -2 1 13 68
34 149 129 519 187 1009 154 1312 -30 282 -118 456 -267 529 -50 24 -69 28
-147 28 -75 0 -98 -4 -140 -24 -67 -33 -171 -139 -226 -231 -94 -158 -194
-416 -245 -632 -9 -43 -19 -76 -21 -74 -2 2 1 94 7 204 17 303 -6 603 -61 787
-46 155 -123 265 -212 305 -57 26 -149 26 -200 -1z m267 -1884 c178 -47 387
-226 446 -383 108 -286 -226 -298 -506 -18 -172 173 -212 340 -94 398 43 22
79 22 154 3z"/>
</g>
</svg>
